<?xml version="1.0" encoding="UTF-8"?>
<svg version="1.1" xmlns="http://www.w3.org/2000/svg" width="150" height="150">
<path d="M0 0 C5.95458064 3.08510306 9.02355824 7.73490189 12.75 13.1875 C13.88696715 14.82936196 15.02741967 16.46881759 16.171875 18.10546875 C16.6678418 18.82887451 17.16380859 19.55228027 17.67480469 20.29760742 C18.90731881 22.13327955 18.90731881 22.13327955 21 23 C22.98702924 22.08817436 24.97294859 21.17389302 26.95507812 20.25146484 C32.91173742 17.80327405 39.16219016 16.21125038 45.35791016 14.48071289 C47.76010509 13.80967722 50.15950923 13.12932951 52.55859375 12.44726562 C54.09620234 12.01248354 55.63395775 11.57822027 57.171875 11.14453125 C57.88341736 10.94350296 58.59495972 10.74247467 59.32806396 10.53535461 C69.58207009 7.67557633 77.98078915 6.85940776 88 11 C91.02473881 12.91954578 91.84052388 13.52157165 93 17 C93.886875 17.12375 94.77375 17.2475 95.6875 17.375 C99 18 99 18 101.16015625 19.00390625 C105.02053363 20.35795884 108.68633079 20.42201902 112.75 20.5625 C120.87822442 20.87822442 120.87822442 20.87822442 122 22 C122.0883967 24.3756852 122.11530305 26.72208674 122.09765625 29.09765625 C122.09553383 30.16094398 122.09553383 30.16094398 122.09336853 31.24571228 C122.08775443 33.51801712 122.07519963 35.79022475 122.0625 38.0625 C122.05748681 39.59960796 122.05292359 41.13671745 122.04882812 42.67382812 C122.03778042 46.44925642 122.02050641 50.22461171 122 54 C120.77035522 54.01401855 120.77035522 54.01401855 119.51586914 54.02832031 C96.96742085 54.32903081 96.96742085 54.32903081 75 59 C44.56682203 68.51036812 44.56682203 68.51036812 31.375 62.375 C28.86831646 60.96535233 26.43589316 59.5225727 24 58 C23.12375977 57.45843262 22.24751953 56.91686523 21.34472656 56.35888672 C15.62992625 52.810475 9.95503945 49.20433479 4.328125 45.51806641 C2.91073413 44.59384908 1.48547134 43.68137813 0.046875 42.79052734 C-3.89346466 40.31960601 -3.89346466 40.31960601 -5 37 C-5.84175781 36.92394531 -6.68351562 36.84789062 -7.55078125 36.76953125 C-11.77050522 35.82809793 -14.6285659 34.06138881 -18.1875 31.6875 C-18.80302734 31.29626953 -19.41855469 30.90503906 -20.05273438 30.50195312 C-23.32299425 28.36547783 -26.10768073 26.46254165 -28 23 C-28.83784519 18.35788474 -28.60235297 14.25708446 -26.5625 10 C-23.03951075 7.25034985 -19.43255918 6.35939669 -15 6 C-14.34 6.33 -13.68 6.66 -13 7 C-12.7525 6.401875 -12.505 5.80375 -12.25 5.1875 C-9.26757472 -0.03174423 -5.81889511 -0.70228044 0 0 Z " fill="#FCD4BB" transform="translate(28,85)"/>
<path d="M0 0 C7.31756998 4.98098454 12.2491664 11.23601375 13.9375 20 C14.51456386 25.09119248 13.64311685 29.19573261 11.9375 34 C13.49597656 34.38091797 13.49597656 34.38091797 15.0859375 34.76953125 C27.66250583 37.86198157 27.66250583 37.86198157 33.75 39.5625 C34.49894531 39.77003906 35.24789062 39.97757813 36.01953125 40.19140625 C38.2403729 41.12768776 39.42738937 42.13100505 40.9375 44 C41.375 46.5 41.375 46.5 40.9375 49 C38.89325462 50.97610386 37.8198175 52 34.9375 52 C34.9375 59.26 34.9375 66.52 34.9375 74 C33.6175 74.33 32.2975 74.66 30.9375 75 C28.9375 73 28.9375 73 28.71044922 71.02880859 C28.72092285 70.24328613 28.73139648 69.45776367 28.7421875 68.6484375 C28.74863281 67.79765625 28.75507812 66.946875 28.76171875 66.0703125 C28.78685547 64.73613281 28.78685547 64.73613281 28.8125 63.375 C28.82152344 62.4778125 28.83054687 61.580625 28.83984375 60.65625 C28.8634503 58.43723414 28.8963769 56.21874923 28.9375 54 C27.57625 54.495 27.57625 54.495 26.1875 55 C22.9375 56 22.9375 56 18.9375 56 C18.95844727 56.70084717 18.97939453 57.40169434 19.00097656 58.1237793 C19.08433048 61.31153919 19.13622139 64.49906952 19.1875 67.6875 C19.22101563 68.79029297 19.25453125 69.89308594 19.2890625 71.02929688 C19.38779314 79.199257 19.38779314 79.199257 17.17578125 83.1328125 C6.34078882 92.17142747 -9.68070515 91.91942744 -23.0625 91 C-32.30061799 89.9962874 -40.39160677 87.67089323 -47.0625 81 C-47.28955078 78.47802734 -47.28955078 78.47802734 -47.2578125 75.3359375 C-47.25136719 74.21445313 -47.24492188 73.09296875 -47.23828125 71.9375 C-47.22152344 70.761875 -47.20476563 69.58625 -47.1875 68.375 C-47.17847656 67.19164063 -47.16945313 66.00828125 -47.16015625 64.7890625 C-47.13652812 61.85917477 -47.10358514 58.9296866 -47.0625 56 C-48.28900269 55.70343506 -48.28900269 55.70343506 -49.5402832 55.40087891 C-50.61624756 55.13710449 -51.69221191 54.87333008 -52.80078125 54.6015625 C-53.86594971 54.34197754 -54.93111816 54.08239258 -56.02856445 53.81494141 C-64.5315285 51.5309715 -64.5315285 51.5309715 -67.0625 49 C-67.5245738 44.61029885 -67.5245738 44.61029885 -65.88891602 42.44995117 C-63.55698448 40.59868244 -61.45217673 39.9889038 -58.58984375 39.17578125 C-57.52572266 38.86962891 -56.46160156 38.56347656 -55.36523438 38.24804688 C-54.25470703 37.93931641 -53.14417969 37.63058594 -52 37.3125 C-50.88560547 36.99216797 -49.77121094 36.67183594 -48.62304688 36.34179688 C-40.38930904 34 -40.38930904 34 -38.0625 34 C-38.3925 33.154375 -38.7225 32.30875 -39.0625 31.4375 C-41.16196237 24.22059809 -39.87080022 17.83035732 -37.0625 11 C-34.73069219 8.01237125 -33.65263501 7.19671167 -30.0625 6 C-29.71899371 4.66925122 -29.38637312 3.33566279 -29.0625 2 C-21.29133817 -3.70942502 -8.65192456 -4.38542568 0 0 Z " fill="#060606" transform="translate(88.0625,2)"/>
<path d="M0 0 C5.88858065 2.6755881 9.69281143 7.18737746 12.94921875 12.6640625 C14.39141152 18.86549141 14.46473759 24.35094686 11.51171875 30.1015625 C8.0538691 35.63608106 3.10559347 40.83263815 -3.42578125 42.3515625 C-10.27006082 43.11203801 -15.79210934 42.49823517 -21.42578125 38.3515625 C-25.74133471 34.2182213 -29.16796883 30.1607134 -29.7265625 24.07421875 C-29.73042969 22.86636719 -29.73429687 21.65851562 -29.73828125 20.4140625 C-29.75503906 19.20878906 -29.77179687 18.00351562 -29.7890625 16.76171875 C-29.40040763 13.11337784 -28.43268556 11.35666528 -26.42578125 8.3515625 C-26.17381996 5.64202699 -26.17381996 5.64202699 -26.42578125 3.3515625 C-25.79929688 3.14660156 -25.1728125 2.94164062 -24.52734375 2.73046875 C-23.71007813 2.46105469 -22.8928125 2.19164062 -22.05078125 1.9140625 C-21.23867188 1.64722656 -20.4265625 1.38039063 -19.58984375 1.10546875 C-13.17059315 -1.13084057 -6.77678749 -1.81150841 0 0 Z " fill="#F8DC89" transform="translate(83.42578125,5.6484375)"/>
<path d="M0 0 C5.95458064 3.08510306 9.02355824 7.73490189 12.75 13.1875 C13.88696715 14.82936196 15.02741967 16.46881759 16.171875 18.10546875 C16.6678418 18.82887451 17.16380859 19.55228027 17.67480469 20.29760742 C18.90731881 22.13327955 18.90731881 22.13327955 21 23 C22.98702924 22.08817436 24.97294859 21.17389302 26.95507812 20.25146484 C32.91173742 17.80327405 39.16219016 16.21125038 45.35791016 14.48071289 C47.76010509 13.80967722 50.15950923 13.12932951 52.55859375 12.44726562 C54.09620234 12.01248354 55.63395775 11.57822027 57.171875 11.14453125 C57.88341736 10.94350296 58.59495972 10.74247467 59.32806396 10.53535461 C69.58207009 7.67557633 77.98078915 6.85940776 88 11 C90.296875 12.60546875 90.296875 12.60546875 92 14 C91.67 14.99 91.34 15.98 91 17 C84.53521127 16.23943662 84.53521127 16.23943662 81.625 14.9375 C72.76192143 11.7721148 63.581054 15.43181938 55 18 C54.06559082 18.27859863 53.13118164 18.55719727 52.16845703 18.84423828 C45.43424809 20.85963286 38.71057903 22.90729249 32 25 C30.82566406 25.35835937 29.65132812 25.71671875 28.44140625 26.0859375 C25.86575034 26.85806175 25.86575034 26.85806175 24 29 C24.32198966 32.09926819 24.32198966 32.09926819 25 35 C29.76732976 36.09535615 33.07843857 35.77133633 37.7890625 34.53125 C39.06007813 34.20769531 40.33109375 33.88414063 41.640625 33.55078125 C42.96905008 33.20166067 44.29717298 32.85138837 45.625 32.5 C48.23963432 31.81177141 50.85664256 31.13704259 53.4765625 30.46875 C54.63236816 30.16388672 55.78817383 29.85902344 56.97900391 29.54492188 C59.82745896 29.03112265 61.32833399 29.0070349 64 30 C64 30.99 64 31.98 64 33 C58.76911849 34.47045891 53.53492797 35.92779362 48.29541016 37.3671875 C46.34486677 37.90492505 44.39676743 38.45151544 42.44921875 39 C28.33656344 42.80730519 28.33656344 42.80730519 22 39.375 C20 37 20 37 19.5 33.875 C19.2525 32.451875 19.2525 32.451875 19 31 C16.71057141 29.92155262 16.71057141 29.92155262 14 29 C12.36062837 28.13587389 10.7371876 27.24101027 9.12890625 26.3203125 C8.22462891 25.80339844 7.32035156 25.28648438 6.38867188 24.75390625 C5.45603516 24.21636719 4.52339844 23.67882812 3.5625 23.125 C2.63373047 22.59519531 1.70496094 22.06539062 0.74804688 21.51953125 C-6.81632204 17.18011392 -6.81632204 17.18011392 -10.390625 14.63671875 C-14.25039375 12.21569614 -16.54349553 12.62233013 -21 13 C-22.41603479 14.21293878 -22.41603479 14.21293878 -22.4921875 17.7578125 C-22.45928182 20.30062698 -22.40806437 21.53359639 -20.71582031 23.46777344 C-18.90785433 24.75061265 -17.07855548 25.82749667 -15.125 26.875 C-13.83505392 27.62086981 -12.54595436 28.36820605 -11.2578125 29.1171875 C-10.18273437 29.73851563 -9.10765625 30.35984375 -8 31 C-7.34 31.66 -6.68 32.32 -6 33 C-6.375 35.125 -6.375 35.125 -7 37 C-11.61260847 35.66241249 -15.20593497 33.79956206 -19.1875 31.125 C-20.21230469 30.44695312 -21.23710937 29.76890625 -22.29296875 29.0703125 C-25.60012307 26.54103142 -27.68045791 24.7704359 -28.43359375 20.59765625 C-28.43981727 16.55859007 -28.32768566 13.68386573 -26.5625 10 C-23.03951075 7.25034985 -19.43255918 6.35939669 -15 6 C-14.34 6.33 -13.68 6.66 -13 7 C-12.7525 6.401875 -12.505 5.80375 -12.25 5.1875 C-9.26757472 -0.03174423 -5.81889511 -0.70228044 0 0 Z " fill="#080706" transform="translate(28,85)"/>
<path d="M0 0 C1.134375 0.474375 2.26875 0.94875 3.4375 1.4375 C8.98816151 3.3352382 14.51106897 3.49917692 20.32202148 3.70874023 C25.91500542 3.91500542 25.91500542 3.91500542 27 5 C27.0883967 7.3756852 27.11530305 9.72208674 27.09765625 12.09765625 C27.0962413 12.80651474 27.09482635 13.51537323 27.09336853 14.24571228 C27.08775443 16.51801712 27.07519963 18.79022475 27.0625 21.0625 C27.05748681 22.59960796 27.05292359 24.13671745 27.04882812 25.67382812 C27.03778042 29.44925642 27.02050641 33.22461171 27 37 C25.77035522 37.01401855 25.77035522 37.01401855 24.51586914 37.02832031 C1.96742085 37.32903081 1.96742085 37.32903081 -20 42 C-50.43317797 51.51036812 -50.43317797 51.51036812 -63.625 45.375 C-66.13168354 43.96535233 -68.56410684 42.5225727 -71 41 C-71.87624023 40.45843262 -72.75248047 39.91686523 -73.65527344 39.35888672 C-82.19953637 34.05361602 -90.65108603 28.60768721 -99 23 C-98.34 21.68 -97.68 20.36 -97 19 C-93.8744226 19.62485367 -91.64899382 20.67764052 -88.98046875 22.40625 C-88.21210693 22.89891357 -87.44374512 23.39157715 -86.65209961 23.89916992 C-85.83878174 24.42744385 -85.02546387 24.95571777 -84.1875 25.5 C-82.48524672 26.5912048 -80.78210945 27.68103174 -79.078125 28.76953125 C-78.22798828 29.31303223 -77.37785156 29.8565332 -76.50195312 30.41650391 C-72.84711134 32.72966782 -69.15048712 34.96919632 -65.4375 37.1875 C-64.81319092 37.56132812 -64.18888184 37.93515625 -63.5456543 38.3203125 C-55.74468764 42.96909657 -48.5344079 43.09561242 -39.546875 41.31640625 C-34.84341641 40.04562876 -30.17540955 38.68516159 -25.52880859 37.22167969 C-9.43478674 32.20698354 5.18666934 31.30427597 22 32 C22 24.41 22 16.82 22 9 C17.33318628 9.11776809 17.33318628 9.11776809 12.66748047 9.27026367 C7.9989333 9.32914283 4.95929418 8.42609569 1 6 C0.01 5.01 0.01 5.01 -1 4 C-0.625 1.875 -0.625 1.875 0 0 Z " fill="#0C0A09" transform="translate(123,102)"/>
<path d="M0 0 C2.37890625 1.6796875 2.37890625 1.6796875 4.5625 3.875 C9.39425526 8.68091699 13.23212818 10.29686627 20.0625 10.5 C27.32680665 10.40082858 33.04928167 8.11827491 39 4 C39.48210937 3.27296875 39.96421875 2.5459375 40.4609375 1.796875 C42 0 42 0 44.68359375 -0.40234375 C48.68861939 0.08354275 52.25288105 1.14628461 56.0625 2.4375 C60.34092067 3.85569515 64.54408202 5.244318 69 6 C69 6.66 69 7.32 69 8 C63.23857799 9.68652672 57.47585113 11.36841267 51.7109375 13.04296875 C47.46081117 14.27835675 43.21638858 15.53052428 38.9765625 16.80078125 C37.1302463 17.34648263 35.28389391 17.89206161 33.4375 18.4375 C32.58905518 18.69611816 31.74061035 18.95473633 30.86645508 19.22119141 C21.8038081 21.87495998 15.27892061 20.75675357 6.4375 17.875 C4.4045227 17.2328942 2.37064029 16.59364817 0.3359375 15.95703125 C-0.70336914 15.6317041 -1.74267578 15.30637695 -2.81347656 14.97119141 C-7.99192627 13.39289897 -13.21062631 11.97061195 -18.4375 10.5625 C-19.39664307 10.30388184 -20.35578613 10.04526367 -21.34399414 9.77880859 C-23.56192047 9.18303311 -25.78048888 8.58983909 -28 8 C-27 6 -27 6 -24.84765625 5.25390625 C-23.92855469 5.02574219 -23.00945313 4.79757813 -22.0625 4.5625 C-17.43958253 3.38575737 -12.91475637 2.0498769 -8.38671875 0.55078125 C-5.41576011 -0.13482459 -3.04140655 -0.32955188 0 0 Z " fill="#3E6D8F" transform="translate(54,41)"/>
<path d="M0 0 C4.4494009 0.88988018 8.79852886 1.91603009 13.13671875 3.24609375 C14.24285522 3.58411011 14.24285522 3.58411011 15.37133789 3.92895508 C16.8484303 4.38515597 18.32302048 4.84955728 19.79467773 5.32299805 C26.64355481 7.43501785 31.91940592 7.65083286 38.6796875 4.8671875 C44.1269214 2.83135261 50.16589423 1 56 1 C56 3.97 56 6.94 56 10 C42.17789857 17.67894524 24.52984529 18.04533699 9.2109375 14.7109375 C5.77057241 13.60467169 3.00243708 12.00162472 0 10 C0 6.7 0 3.4 0 0 Z " fill="#3F6F91" transform="translate(46,59)"/>
<path d="M0 0 C1.32064453 0.41572266 1.32064453 0.41572266 2.66796875 0.83984375 C4.41013672 1.38318359 4.41013672 1.38318359 6.1875 1.9375 C7.91033203 2.47697266 7.91033203 2.47697266 9.66796875 3.02734375 C23.74650496 7.13702196 38.31780039 5.83930071 52 1 C53.32857745 0.64818919 54.66012519 0.30598103 56 0 C56.25 3.3125 56.25 3.3125 56 7 C48.32622613 14.45452319 35.31268558 14.527658 25.27685547 14.40600586 C16.62127897 14.12757124 6.42488662 13.42488662 0 7 C-0.375 3.25 -0.375 3.25 0 0 Z " fill="#F9DE8A" transform="translate(46,74)"/>
<path d="M0 0 C4 0 4 0 6.75 2.5 C7.86375 3.7375 7.86375 3.7375 9 5 C8.67 5.99 8.34 6.98 8 8 C6.68 7.67 5.36 7.34 4 7 C4.11406002 9.86136296 4.11406002 9.86136296 5 13 C5.845625 13.639375 6.69125 14.27875 7.5625 14.9375 C10 17 10 17 10.625 20.4375 C9.85430507 24.83046111 8.29046582 26.1108105 5 29 C4.67 29.99 4.34 30.98 4 32 C2.68 31.67 1.36 31.34 0 31 C0 30.34 0 29.68 0 29 C-2.475 28.01 -2.475 28.01 -5 27 C-5 25.68 -5 24.36 -5 23 C-3.35 23.33 -1.7 23.66 0 24 C-0.25459534 19.95228128 -0.25459534 19.95228128 -1 16 C-2.32848691 14.99357052 -3.66150329 13.99307821 -5 13 C-5.74396135 7.04830918 -5.74396135 7.04830918 -3.625 4.0625 C-2 3 -2 3 0 3 C0 2.01 0 1.02 0 0 Z " fill="#0F0D08" transform="translate(73,10)"/>
<path d="M0 0 C4.73468 1.65528851 8.76598141 4.17778296 13 6.8125 C14.16728638 7.53240112 14.16728638 7.53240112 15.3581543 8.2668457 C17.90785471 9.8406881 20.4539991 11.42018109 23 13 C25.70308416 14.67214272 28.40668392 16.34344934 31.11035156 18.01464844 C32.90403051 19.12508285 34.69636276 20.23769569 36.48730469 21.35253906 C40.36293088 23.76374982 44.24189626 26.1589785 48.18359375 28.4609375 C48.79549561 28.82227783 49.40739746 29.18361816 50.0378418 29.5559082 C51.61877005 30.48534884 53.20749484 31.40149382 54.796875 32.31640625 C57 34 57 34 57.828125 36.21484375 C57.88484375 36.80394531 57.9415625 37.39304688 58 38 C50.78313044 34.30236796 43.91360396 30.14198537 37.0625 25.8125 C36.23387451 25.28946289 35.40524902 24.76642578 34.55151367 24.22753906 C28.35305157 20.28634233 28.35305157 20.28634233 25.92749023 18.3190918 C23.97508497 16.69278361 23.97508497 16.69278361 21 17.1875 C20.01 17.125625 19.02 17.06375 18 17 C17.41605469 16.0925 16.83210938 15.185 16.23046875 14.25 C13.3310673 10.02530297 9.92808067 8.26370708 5.51367188 5.81445312 C1.09299739 3.27899216 1.09299739 3.27899216 0 0 Z " fill="#EEC1A6" transform="translate(5,105)"/>
<path d="M0 0 C0.6290625 0.19335938 1.258125 0.38671875 1.90625 0.5859375 C2.7621875 0.84632812 3.618125 1.10671875 4.5 1.375 C5.3353125 1.63023438 6.170625 1.88546875 7.03125 2.1484375 C8.0109375 2.42945312 8.990625 2.71046875 10 3 C11.85238281 3.53367187 11.85238281 3.53367187 13.7421875 4.078125 C18.37237499 5.2122044 22.87282492 5.3828282 27.625 5.375 C28.93017578 5.37584595 28.93017578 5.37584595 30.26171875 5.37670898 C38.05126213 5.24549705 44.64832709 3.60023658 52 1 C53.32857745 0.64818919 54.66012519 0.30598103 56 0 C55.4296875 1.828125 55.4296875 1.828125 54 4 C51.64967811 5.16595603 49.60738006 5.99152821 47.125 6.75 C46.42536133 6.96462891 45.72572266 7.17925781 45.00488281 7.40039062 C32.23269592 10.92182509 15.9729298 10.94854502 3.9453125 4.98046875 C2.25 3.9375 2.25 3.9375 0 2 C0 1.34 0 0.68 0 0 Z " fill="#E9C871" transform="translate(46,79)"/>
<path d="M0 0 C4.4494009 0.88988018 8.79852886 1.91603009 13.13671875 3.24609375 C14.24285522 3.58411011 14.24285522 3.58411011 15.37133789 3.92895508 C16.8484303 4.38515597 18.32302048 4.84955728 19.79467773 5.32299805 C26.64355481 7.43501785 31.91940592 7.65083286 38.6796875 4.8671875 C44.1269214 2.83135261 50.16589423 1 56 1 C55.67 1.99 55.34 2.98 55 4 C51.28459907 5.68291129 47.29456015 6.63861947 43.375 7.75 C42.29347656 8.07871094 41.21195313 8.40742187 40.09765625 8.74609375 C34.34192836 10.41167069 29.92597326 11.55301368 24 10 C23.19159668 9.78827148 22.38319336 9.57654297 21.55029297 9.35839844 C18.77144149 8.6097285 16.01101552 7.81183813 13.25 7 C12.30511719 6.72671875 11.36023437 6.4534375 10.38671875 6.171875 C6.90551265 5.16168148 3.4390945 4.14636483 0 3 C0 2.01 0 1.02 0 0 Z " fill="#355D7B" transform="translate(46,59)"/>
<path d="M0 0 C5.18485177 1.51923185 6.79767743 4.28138696 9.68359375 8.66015625 C10.17666016 9.37107422 10.66972656 10.08199219 11.17773438 10.81445312 C12.38615654 12.56255898 13.56876057 14.32846299 14.74609375 16.09765625 C10.14025654 16.09765625 6.96677741 13.63036894 3.05859375 11.34765625 C2.26130859 10.90421875 1.46402344 10.46078125 0.64257812 10.00390625 C-0.11087891 9.565625 -0.86433594 9.12734375 -1.640625 8.67578125 C-2.33373779 8.2777832 -3.02685059 7.87978516 -3.7409668 7.46972656 C-4.24023682 7.01694336 -4.73950684 6.56416016 -5.25390625 6.09765625 C-5.25390625 1.17557926 -4.98750235 0.14968494 0 0 Z " fill="#E5B39B" transform="translate(25.25390625,89.90234375)"/>
<path d="M0 0 C1.86398438 0.02030273 1.86398438 0.02030273 3.765625 0.04101562 C6.80254831 0.07605705 9.83853467 0.12518567 12.875 0.1875 C12.875 0.8475 12.875 1.5075 12.875 2.1875 C11.72499512 2.217229 11.72499512 2.217229 10.55175781 2.24755859 C7.07582781 2.34285446 3.60049494 2.45251598 0.125 2.5625 C-1.68484375 2.60890625 -1.68484375 2.60890625 -3.53125 2.65625 C-4.69140625 2.69492188 -5.8515625 2.73359375 -7.046875 2.7734375 C-8.11518555 2.8048584 -9.18349609 2.8362793 -10.28417969 2.86865234 C-13.10311062 3.18504318 -14.67367213 3.84824109 -17.125 5.1875 C-19.44995277 5.57499213 -21.78351268 5.91732839 -24.125 6.1875 C-24.125 5.1975 -24.125 4.2075 -24.125 3.1875 C-16.02821316 0.07667849 -8.60352287 -0.17962387 0 0 Z " fill="#F6C5A9" transform="translate(131.125,130.8125)"/>
<path d="M0 0 C0.33 0.99 0.66 1.98 1 3 C-2.95737839 4.00380545 -6.91605332 5.00239936 -10.875 6 C-12.00292969 6.28617187 -13.13085938 6.57234375 -14.29296875 6.8671875 C-15.90751953 7.27324219 -15.90751953 7.27324219 -17.5546875 7.6875 C-18.54968262 7.93886719 -19.54467773 8.19023438 -20.56982422 8.44921875 C-23 9 -23 9 -25 9 C-25.33 8.01 -25.66 7.02 -26 6 C-21.00191596 4.65936808 -16.00187867 3.32640912 -11 2 C-10.11828125 1.76539062 -9.2365625 1.53078125 -8.328125 1.2890625 C-5.45851027 0.54468875 -2.97963238 0 0 0 Z " fill="#E7B99F" transform="translate(87,112)"/>
<path d="M0 0 C0 0.66 0 1.32 0 2 C-8.26187567 4.83264309 -16.26830441 5.91474906 -25 5 C-25.66 4.34 -26.32 3.68 -27 3 C-25 1 -25 1 -21.8046875 0.875 C-20.50789063 0.91625 -19.21109375 0.9575 -17.875 1 C-12.9813105 1.10784188 -3.85607764 -1.92803882 0 0 Z " fill="#F9C9AD" transform="translate(91,140)"/>
<path d="M0 0 C0.94875 0.165 1.8975 0.33 2.875 0.5 C8.54385277 1.30654409 14.38108475 1.54560734 20 0.375 C20.66 0.25125 21.32 0.1275 22 0 C22.66 0.66 23.32 1.32 24 2 C17.80142647 5.23403836 11.6465737 6.4386189 4.8046875 4.3203125 C3.16790089 3.62451252 1.57682748 2.8226926 0 2 C0 1.34 0 0.68 0 0 Z " fill="#E1C16D" transform="translate(63,43)"/>
<path d="M0 0 C3.59391114 1.33488128 6.75490696 2.96022723 10 5 C9.67 5.99 9.34 6.98 9 8 C6.33333333 7.33333333 3.66666667 6.66666667 1 6 C0.67 4.02 0.34 2.04 0 0 Z " fill="#F6C7AB" transform="translate(21,115)"/>
<path d="M0 0 C0 0.33 0 0.66 0 1 C-6.93 2.485 -6.93 2.485 -14 4 C-14 3.01 -14 2.02 -14 1 C-4.58997722 -2.81321185 -4.58997722 -2.81321185 0 0 Z " fill="#F5C5A9" transform="translate(107,137)"/>
<path d="M0 0 C4.99275057 1.27721526 7.57611908 3.17330957 11 7 C7.55639368 7 6.25204608 6.20408468 3.3125 4.5 C2.50425781 4.0359375 1.69601563 3.571875 0.86328125 3.09375 C0.24839844 2.7328125 -0.36648437 2.371875 -1 2 C-0.67 1.34 -0.34 0.68 0 0 Z " fill="#D9A28A" transform="translate(29,99)"/>
<path d="M0 0 C-1.485 1.98 -1.485 1.98 -3 4 C-5.31 3.67 -7.62 3.34 -10 3 C-9 1 -9 1 -7.25 0.375 C-4.79549443 -0.03408426 -2.4840589 -0.06900164 0 0 Z " fill="#37617F" transform="translate(36,46)"/>
<path d="M0 0 C1.98 0 3.96 0 6 0 C6.66 1.32 7.32 2.64 8 4 C5.36 3.67 2.72 3.34 0 3 C0 2.01 0 1.02 0 0 Z " fill="#DDBE6B" transform="translate(54,83)"/>
<path d="M0 0 C0 0.66 0 1.32 0 2 C-2.70879335 3.35439668 -5.00933268 3.06501451 -8 3 C-8 2.34 -8 1.68 -8 1 C-2.25 -1.125 -2.25 -1.125 0 0 Z " fill="#EDBEA3" transform="translate(91,140)"/>
<path d="M0 0 C2.31 0.66 4.62 1.32 7 2 C4 4 4 4 1.3125 3.625 C0.549375 3.41875 -0.21375 3.2125 -1 3 C-0.67 2.01 -0.34 1.02 0 0 Z " fill="#EBBCA2" transform="translate(65,141)"/>
<path d="M0 0 C2.92879371 0.62759865 5.36095629 1.58622659 8 3 C5.6875 3.625 5.6875 3.625 3 4 C2.01 3.34 1.02 2.68 0 2 C0 1.34 0 0.68 0 0 Z " fill="#E0B69C" transform="translate(52,118)"/>
<path d="M0 0 C2.625 0.9375 2.625 0.9375 5 2 C5 2.33 5 2.66 5 3 C2.69 3.33 0.38 3.66 -2 4 C-2 3.01 -2 2.02 -2 1 C-1.34 0.67 -0.68 0.34 0 0 Z " fill="#E8BAA0" transform="translate(102,135)"/>
</svg>
